<svg width="137" height="40" viewBox="0 0 137 40" fill="none" xmlns="http://www.w3.org/2000/svg">
  <path d="M71.5455 14.0455C71.4091 12.8939 70.8561 12 69.8864 11.3636C68.9167 10.7273 67.7273 10.4091 66.3182 10.4091C65.2879 10.4091 64.3864 10.5758 63.6136 10.9091C62.8485 11.2424 62.25 11.7008 61.8182 12.2841C61.3939 12.8674 61.1818 13.5303 61.1818 14.2727C61.1818 14.8939 61.3295 15.428 61.625 15.875C61.928 16.3144 62.3144 16.6818 62.7841 16.9773C63.2538 17.2652 63.7462 17.5038 64.2614 17.6932C64.7765 17.875 65.25 18.0227 65.6818 18.1364L68.0455 18.7727C68.6515 18.9318 69.3258 19.1515 70.0682 19.4318C70.8182 19.7121 71.5341 20.0947 72.2159 20.5795C72.9053 21.0568 73.4735 21.6705 73.9205 22.4205C74.3674 23.1705 74.5909 24.0909 74.5909 25.1818C74.5909 26.4394 74.2614 27.5758 73.6023 28.5909C72.9508 29.6061 71.9962 30.4129 70.7386 31.0114C69.4886 31.6098 67.9697 31.9091 66.1818 31.9091C64.5152 31.9091 63.072 31.6402 61.8523 31.1023C60.6402 30.5644 59.6856 29.8144 58.9886 28.8523C58.2992 27.8902 57.9091 26.7727 57.8182 25.5H60.7273C60.803 26.3788 61.0985 27.1061 61.6136 27.6818C62.1364 28.25 62.7955 28.6742 63.5909 28.9545C64.3939 29.2273 65.2576 29.3636 66.1818 29.3636C67.2576 29.3636 68.2235 29.1894 69.0795 28.8409C69.9356 28.4848 70.6136 27.9924 71.1136 27.3636C71.6136 26.7273 71.8636 25.9848 71.8636 25.1364C71.8636 24.3636 71.6477 23.7348 71.2159 23.25C70.7841 22.7652 70.2159 22.3712 69.5114 22.0682C68.8068 21.7652 68.0455 21.5 67.2273 21.2727L64.3636 20.4545C62.5455 19.9318 61.1061 19.1856 60.0455 18.2159C58.9848 17.2462 58.4545 15.9773 58.4545 14.4091C58.4545 13.1061 58.8068 11.9697 59.5114 11C60.2235 10.0227 61.178 9.26515 62.375 8.72727C63.5795 8.18182 64.9242 7.90909 66.4091 7.90909C67.9091 7.90909 69.2424 8.17803 70.4091 8.71591C71.5758 9.24621 72.5 9.97348 73.1818 10.8977C73.8712 11.822 74.2348 12.8712 74.2727 14.0455H71.5455ZM83.9972 31.9091C82.8911 31.9091 81.8873 31.7008 80.9858 31.2841C80.0843 30.8598 79.3684 30.25 78.8381 29.4545C78.3078 28.6515 78.0426 27.6818 78.0426 26.5455C78.0426 25.5455 78.2396 24.7348 78.6335 24.1136C79.0275 23.4848 79.554 22.9924 80.2131 22.6364C80.8722 22.2803 81.5994 22.0152 82.3949 21.8409C83.1979 21.6591 84.0047 21.5152 84.8153 21.4091C85.8759 21.2727 86.7358 21.1705 87.3949 21.1023C88.0616 21.0265 88.5464 20.9015 88.8494 20.7273C89.16 20.553 89.3153 20.25 89.3153 19.8182V19.7273C89.3153 18.6061 89.0085 17.7348 88.3949 17.1136C87.7888 16.4924 86.8684 16.1818 85.6335 16.1818C84.3532 16.1818 83.3494 16.4621 82.6222 17.0227C81.8949 17.5833 81.3835 18.1818 81.0881 18.8182L78.5426 17.9091C78.9972 16.8485 79.6032 16.0227 80.3608 15.4318C81.1259 14.8333 81.9593 14.4167 82.8608 14.1818C83.7699 13.9394 84.6638 13.8182 85.5426 13.8182C86.1032 13.8182 86.7472 13.8864 87.4744 14.0227C88.2093 14.1515 88.9176 14.4205 89.5994 14.8295C90.2888 15.2386 90.8608 15.8561 91.3153 16.6818C91.7699 17.5076 91.9972 18.6136 91.9972 20V31.5H89.3153V29.1364H89.179C88.9972 29.5152 88.6941 29.9205 88.2699 30.3523C87.8456 30.7841 87.2813 31.1515 86.5767 31.4545C85.8722 31.7576 85.0123 31.9091 83.9972 31.9091ZM84.4062 29.5C85.4669 29.5 86.3608 29.2917 87.0881 28.875C87.8229 28.4583 88.3759 27.9205 88.7472 27.2614C89.1259 26.6023 89.3153 25.9091 89.3153 25.1818V22.7273C89.2017 22.8636 88.9517 22.9886 88.5653 23.1023C88.1866 23.2083 87.7472 23.303 87.2472 23.3864C86.7547 23.4621 86.2737 23.5303 85.804 23.5909C85.3419 23.6439 84.9669 23.6894 84.679 23.7273C83.982 23.8182 83.3305 23.9659 82.7244 24.1705C82.1259 24.3674 81.6411 24.6667 81.2699 25.0682C80.9063 25.4621 80.7244 26 80.7244 26.6818C80.7244 27.6136 81.0691 28.3182 81.7585 28.7955C82.4555 29.2652 83.3381 29.5 84.4062 29.5ZM104.483 14.0455V16.3182H95.4375V14.0455H104.483ZM98.0739 9.86364H100.756V26.5C100.756 27.2576 100.866 27.8258 101.085 28.2045C101.313 28.5758 101.6 28.8258 101.949 28.9545C102.305 29.0758 102.68 29.1364 103.074 29.1364C103.369 29.1364 103.612 29.1212 103.801 29.0909C103.991 29.053 104.142 29.0227 104.256 29L104.801 31.4091C104.619 31.4773 104.366 31.5455 104.04 31.6136C103.714 31.6894 103.301 31.7273 102.801 31.7273C102.044 31.7273 101.301 31.5644 100.574 31.2386C99.8542 30.9129 99.2557 30.4167 98.7784 29.75C98.3087 29.0833 98.0739 28.2424 98.0739 27.2273V9.86364ZM115.42 31.8636C113.845 31.8636 112.462 31.4886 111.273 30.7386C110.091 29.9886 109.167 28.9394 108.5 27.5909C107.841 26.2424 107.511 24.6667 107.511 22.8636C107.511 21.0455 107.841 19.4583 108.5 18.1023C109.167 16.7462 110.091 15.6932 111.273 14.9432C112.462 14.1932 113.845 13.8182 115.42 13.8182C116.996 13.8182 118.375 14.1932 119.557 14.9432C120.746 15.6932 121.67 16.7462 122.33 18.1023C122.996 19.4583 123.33 21.0455 123.33 22.8636C123.33 24.6667 122.996 26.2424 122.33 27.5909C121.67 28.9394 120.746 29.9886 119.557 30.7386C118.375 31.4886 116.996 31.8636 115.42 31.8636ZM115.42 29.4545C116.617 29.4545 117.602 29.1477 118.375 28.5341C119.148 27.9205 119.72 27.1136 120.091 26.1136C120.462 25.1136 120.648 24.0303 120.648 22.8636C120.648 21.697 120.462 20.6098 120.091 19.6023C119.72 18.5947 119.148 17.7803 118.375 17.1591C117.602 16.5379 116.617 16.2273 115.42 16.2273C114.223 16.2273 113.239 16.5379 112.466 17.1591C111.693 17.7803 111.121 18.5947 110.75 19.6023C110.379 20.6098 110.193 21.697 110.193 22.8636C110.193 24.0303 110.379 25.1136 110.75 26.1136C111.121 27.1136 111.693 27.9205 112.466 28.5341C113.239 29.1477 114.223 29.4545 115.42 29.4545ZM127.423 31.5V14.0455H130.014V16.6818H130.196C130.514 15.8182 131.09 15.1174 131.923 14.5795C132.757 14.0417 133.696 13.7727 134.741 13.7727C134.938 13.7727 135.185 13.7765 135.48 13.7841C135.776 13.7917 135.999 13.803 136.151 13.8182V16.5455C136.06 16.5227 135.851 16.4886 135.526 16.4432C135.207 16.3902 134.87 16.3636 134.514 16.3636C133.666 16.3636 132.908 16.5417 132.241 16.8977C131.582 17.2462 131.06 17.7311 130.673 18.3523C130.295 18.9659 130.105 19.6667 130.105 20.4545V31.5H127.423Z" fill="url(#paint0_linear_2_22)"/>
  <g clip-path="url(#clip0_2_22)">
    <path d="M12.3247 37.4378H4.43269C3.26057 37.4378 2.13644 36.9737 1.30763 36.1475C0.478809 35.3212 0.0131836 34.2006 0.0131836 33.0321V25.1646C0.0131836 23.9961 0.478809 22.8754 1.30763 22.0492C2.13644 21.223 3.26057 20.7588 4.43269 20.7588H11.6934C12.1957 20.7588 12.6774 20.9577 13.0326 21.3119C13.3879 21.6659 13.5874 22.1462 13.5874 22.647C13.5874 22.9808 13.7204 23.301 13.9572 23.5371C14.1941 23.7731 14.5153 23.9058 14.8501 23.9058H16.7442V26.4234H14.8501C13.9566 26.4209 13.0927 26.1039 12.4112 25.528C11.7295 24.9521 11.274 24.1547 11.1251 23.2764H4.43269C3.93036 23.2764 3.44859 23.4753 3.09338 23.8294C2.73818 24.1835 2.53862 24.6638 2.53862 25.1646V33.0321C2.53862 33.5328 2.73818 34.0131 3.09338 34.3673C3.44859 34.7213 3.93036 34.9203 4.43269 34.9203H12.3247C12.8271 34.9203 13.3087 34.7213 13.664 34.3673C14.0192 34.0131 14.2188 33.5328 14.2188 33.0321V28.3115H16.7442V33.0321C16.7442 34.2006 16.2785 35.3212 15.4497 36.1475C14.6209 36.9737 13.4968 37.4378 12.3247 37.4378Z" fill="url(#paint1_linear_2_22)"/>
    <path d="M31.5805 37.4378H23.6886C22.5165 37.4378 21.3923 36.9737 20.5635 36.1475C19.7347 35.3212 19.269 34.2006 19.269 33.0321V25.794C19.269 25.2932 19.4687 24.8129 19.8238 24.4588C20.179 24.1047 20.6608 23.9058 21.1632 23.9058C21.498 23.9058 21.8192 23.7731 22.056 23.5371C22.2928 23.301 22.4259 22.9808 22.4259 22.647V20.7588H24.9513V22.647C24.9489 23.5377 24.6307 24.3989 24.0531 25.0784C23.4755 25.7579 22.6755 26.212 21.7945 26.3604V33.0321C21.7945 33.5328 21.9941 34.0131 22.3493 34.3673C22.7044 34.7213 23.1862 34.9203 23.6886 34.9203H31.5805C32.0829 34.9203 32.5647 34.7213 32.9199 34.3673C33.2751 34.0131 33.4747 33.5328 33.4747 33.0321V25.1646C33.4747 24.6638 33.2751 24.1835 32.9199 23.8294C32.5647 23.4753 32.0829 23.2764 31.5805 23.2764H26.8453V20.7588H31.5805C32.7527 20.7588 33.8768 21.223 34.7056 22.0492C35.5344 22.8754 36.0001 23.9961 36.0001 25.1646V33.0321C36.0001 34.2006 35.5344 35.3212 34.7056 36.1475C33.8768 36.9737 32.7527 37.4378 31.5805 37.4378Z" fill="url(#paint2_linear_2_22)"/>
    <path d="M31.5805 18.2411H24.3199C23.8176 18.2411 23.3358 18.0422 22.9807 17.688C22.6254 17.334 22.4259 16.8537 22.4259 16.3529C22.4259 16.0191 22.2928 15.6989 22.056 15.4628C21.8192 15.2268 21.498 15.0941 21.1632 15.0941H19.269V12.5765H21.1632C22.0566 12.579 22.9205 12.896 23.6021 13.4719C24.2837 14.0478 24.7392 14.8452 24.8882 15.7235H31.5805C32.0829 15.7235 32.5647 15.5246 32.9199 15.1705C33.2751 14.8164 33.4747 14.3361 33.4747 13.8353V5.96781C33.4747 5.46703 33.2751 4.98676 32.9199 4.63265C32.5647 4.27855 32.0829 4.07961 31.5805 4.07961H23.6886C23.1862 4.07961 22.7044 4.27855 22.3493 4.63265C21.9941 4.98676 21.7945 5.46703 21.7945 5.96781V10.6883H19.269V5.96781C19.269 4.79932 19.7347 3.67869 20.5635 2.85244C21.3923 2.02619 22.5165 1.56201 23.6886 1.56201H31.5805C32.7527 1.56201 33.8768 2.02619 34.7056 2.85244C35.5344 3.67869 36.0001 4.79932 36.0001 5.96781V13.8353C36.0001 15.0038 35.5344 16.1245 34.7056 16.9507C33.8768 17.7769 32.7527 18.2411 31.5805 18.2411Z" fill="url(#paint3_linear_2_22)"/>
    <path d="M13.5874 18.2411H11.062V16.3529C11.0644 15.4623 11.3824 14.601 11.9602 13.9215C12.5378 13.242 13.3378 12.7879 14.2188 12.6395V5.96781C14.2188 5.46703 14.0192 4.98676 13.664 4.63265C13.3087 4.27855 12.8271 4.07961 12.3247 4.07961H4.43269C3.93036 4.07961 3.44859 4.27855 3.09338 4.63265C2.73818 4.98676 2.53862 5.46703 2.53862 5.96781V13.8353C2.53862 14.3361 2.73818 14.8164 3.09338 15.1705C3.44859 15.5246 3.93036 15.7235 4.43269 15.7235H9.16789V18.2411H4.43269C3.26057 18.2411 2.13644 17.7769 1.30763 16.9507C0.478809 16.1245 0.0131836 15.0038 0.0131836 13.8353V5.96781C0.0131836 4.79932 0.478809 3.67869 1.30763 2.85244C2.13644 2.02619 3.26057 1.56201 4.43269 1.56201H12.3247C13.4968 1.56201 14.6209 2.02619 15.4497 2.85244C16.2785 3.67869 16.7442 4.79932 16.7442 5.96781V13.2059C16.7442 13.7067 16.5446 14.187 16.1895 14.5411C15.8342 14.8952 15.3525 15.0941 14.8501 15.0941C14.5153 15.0941 14.1941 15.2268 13.9572 15.4628C13.7204 15.6989 13.5874 16.0191 13.5874 16.3529V18.2411Z" fill="url(#paint4_linear_2_22)"/>
  </g>
  <defs>
    <linearGradient id="paint0_linear_2_22" x1="21.7845" y1="-14.125" x2="143.61" y2="34.8645" gradientUnits="userSpaceOnUse">
      <stop stop-color="#FF36EB"/>
      <stop offset="1" stop-color="#1BA2EE"/>
    </linearGradient>
    <linearGradient id="paint1_linear_2_22" x1="8.37868" y1="20.7588" x2="8.37868" y2="37.4378" gradientUnits="userSpaceOnUse">
      <stop stop-color="#EE84FF"/>
      <stop offset="1" stop-color="#8F30EE"/>
    </linearGradient>
    <linearGradient id="paint2_linear_2_22" x1="27.6345" y1="20.7588" x2="27.6345" y2="37.4378" gradientUnits="userSpaceOnUse">
      <stop stop-color="#EE84FF"/>
      <stop offset="1" stop-color="#8F30EE"/>
    </linearGradient>
    <linearGradient id="paint3_linear_2_22" x1="27.6345" y1="1.56201" x2="27.6345" y2="18.2411" gradientUnits="userSpaceOnUse">
      <stop stop-color="#EE84FF"/>
      <stop offset="1" stop-color="#8F30EE"/>
    </linearGradient>
    <linearGradient id="paint4_linear_2_22" x1="8.37868" y1="1.56201" x2="8.37868" y2="18.2411" gradientUnits="userSpaceOnUse">
      <stop stop-color="#EE84FF"/>
      <stop offset="1" stop-color="#8F30EE"/>
    </linearGradient>
    <clipPath id="clip0_2_22">
      <rect width="36" height="36" fill="white" transform="translate(0 1.5)"/>
    </clipPath>
  </defs>
</svg>
