<svg width="80" height="25" viewBox="0 0 80 25" fill="none" xmlns="http://www.w3.org/2000/svg">
  <path d="M14.5455 7.04545C14.4091 5.89394 13.8561 5 12.8864 4.36364C11.9167 3.72727 10.7273 3.40909 9.31818 3.40909C8.28788 3.40909 7.38636 3.57576 6.61364 3.90909C5.84849 4.24242 5.25 4.70076 4.81818 5.28409C4.39394 5.86742 4.18182 6.5303 4.18182 7.27273C4.18182 7.89394 4.32955 8.42803 4.625 8.875C4.92803 9.31439 5.31439 9.68182 5.78409 9.97727C6.25379 10.2652 6.74621 10.5038 7.26136 10.6932C7.77652 10.875 8.25 11.0227 8.68182 11.1364L11.0455 11.7727C11.6515 11.9318 12.3258 12.1515 13.0682 12.4318C13.8182 12.7121 14.5341 13.0947 15.2159 13.5795C15.9053 14.0568 16.4735 14.6705 16.9205 15.4205C17.3674 16.1705 17.5909 17.0909 17.5909 18.1818C17.5909 19.4394 17.2614 20.5758 16.6023 21.5909C15.9508 22.6061 14.9962 23.4129 13.7386 24.0114C12.4886 24.6098 10.9697 24.9091 9.18182 24.9091C7.51515 24.9091 6.07197 24.6402 4.85227 24.1023C3.64015 23.5644 2.68561 22.8144 1.98864 21.8523C1.29924 20.8902 0.909091 19.7727 0.818182 18.5H3.72727C3.80303 19.3788 4.09848 20.1061 4.61364 20.6818C5.13636 21.25 5.79545 21.6742 6.59091 21.9545C7.39394 22.2273 8.25758 22.3636 9.18182 22.3636C10.2576 22.3636 11.2235 22.1894 12.0795 21.8409C12.9356 21.4848 13.6136 20.9924 14.1136 20.3636C14.6136 19.7273 14.8636 18.9848 14.8636 18.1364C14.8636 17.3636 14.6477 16.7348 14.2159 16.25C13.7841 15.7652 13.2159 15.3712 12.5114 15.0682C11.8068 14.7652 11.0455 14.5 10.2273 14.2727L7.36364 13.4545C5.54545 12.9318 4.10606 12.1856 3.04545 11.2159C1.98485 10.2462 1.45455 8.97727 1.45455 7.40909C1.45455 6.10606 1.80682 4.9697 2.51136 4C3.22348 3.02273 4.17803 2.26515 5.375 1.72727C6.57955 1.18182 7.92424 0.90909 9.40909 0.90909C10.9091 0.90909 12.2424 1.17803 13.4091 1.71591C14.5758 2.24621 15.5 2.97348 16.1818 3.89773C16.8712 4.82197 17.2348 5.87121 17.2727 7.04545H14.5455ZM26.9972 24.9091C25.8911 24.9091 24.8873 24.7008 23.9858 24.2841C23.0843 23.8598 22.3684 23.25 21.8381 22.4545C21.3078 21.6515 21.0426 20.6818 21.0426 19.5455C21.0426 18.5455 21.2396 17.7348 21.6335 17.1136C22.0275 16.4848 22.554 15.9924 23.2131 15.6364C23.8722 15.2803 24.5994 15.0152 25.3949 14.8409C26.1979 14.6591 27.0047 14.5152 27.8153 14.4091C28.8759 14.2727 29.7358 14.1705 30.3949 14.1023C31.0616 14.0265 31.5464 13.9015 31.8494 13.7273C32.16 13.553 32.3153 13.25 32.3153 12.8182V12.7273C32.3153 11.6061 32.0085 10.7348 31.3949 10.1136C30.7888 9.49242 29.8684 9.18182 28.6335 9.18182C27.3532 9.18182 26.3494 9.46212 25.6222 10.0227C24.8949 10.5833 24.3835 11.1818 24.0881 11.8182L21.5426 10.9091C21.9972 9.84848 22.6032 9.02273 23.3608 8.43182C24.1259 7.83333 24.9593 7.41667 25.8608 7.18182C26.7699 6.93939 27.6638 6.81818 28.5426 6.81818C29.1032 6.81818 29.7472 6.88636 30.4744 7.02273C31.2093 7.15151 31.9176 7.42045 32.5994 7.82954C33.2888 8.23864 33.8608 8.85606 34.3153 9.68182C34.7699 10.5076 34.9972 11.6136 34.9972 13V24.5H32.3153V22.1364H32.179C31.9972 22.5152 31.6941 22.9205 31.2699 23.3523C30.8456 23.7841 30.2813 24.1515 29.5767 24.4545C28.8722 24.7576 28.0123 24.9091 26.9972 24.9091ZM27.4062 22.5C28.4669 22.5 29.3608 22.2917 30.0881 21.875C30.8229 21.4583 31.3759 20.9205 31.7472 20.2614C32.1259 19.6023 32.3153 18.9091 32.3153 18.1818V15.7273C32.2017 15.8636 31.9517 15.9886 31.5653 16.1023C31.1866 16.2083 30.7472 16.303 30.2472 16.3864C29.7547 16.4621 29.2737 16.5303 28.804 16.5909C28.3419 16.6439 27.9669 16.6894 27.679 16.7273C26.982 16.8182 26.3305 16.9659 25.7244 17.1705C25.1259 17.3674 24.6411 17.6667 24.2699 18.0682C23.9063 18.4621 23.7244 19 23.7244 19.6818C23.7244 20.6136 24.0691 21.3182 24.7585 21.7955C25.4555 22.2652 26.3381 22.5 27.4062 22.5ZM47.483 7.04545V9.31818H38.4375V7.04545H47.483ZM41.0739 2.86364H43.7557V19.5C43.7557 20.2576 43.8655 20.8258 44.0852 21.2045C44.3125 21.5758 44.6004 21.8258 44.9489 21.9545C45.3049 22.0758 45.6799 22.1364 46.0739 22.1364C46.3693 22.1364 46.6117 22.1212 46.8011 22.0909C46.9905 22.053 47.142 22.0227 47.2557 22L47.8011 24.4091C47.6193 24.4773 47.3655 24.5455 47.0398 24.6136C46.714 24.6894 46.3011 24.7273 45.8011 24.7273C45.0436 24.7273 44.3011 24.5644 43.5739 24.2386C42.8542 23.9129 42.2557 23.4167 41.7784 22.75C41.3087 22.0833 41.0739 21.2424 41.0739 20.2273V2.86364ZM58.4205 24.8636C56.8447 24.8636 55.4621 24.4886 54.2727 23.7386C53.0909 22.9886 52.1667 21.9394 51.5 20.5909C50.8409 19.2424 50.5114 17.6667 50.5114 15.8636C50.5114 14.0455 50.8409 12.4583 51.5 11.1023C52.1667 9.74621 53.0909 8.69318 54.2727 7.94318C55.4621 7.19318 56.8447 6.81818 58.4205 6.81818C59.9962 6.81818 61.375 7.19318 62.5568 7.94318C63.7462 8.69318 64.6705 9.74621 65.3295 11.1023C65.9962 12.4583 66.3295 14.0455 66.3295 15.8636C66.3295 17.6667 65.9962 19.2424 65.3295 20.5909C64.6705 21.9394 63.7462 22.9886 62.5568 23.7386C61.375 24.4886 59.9962 24.8636 58.4205 24.8636ZM58.4205 22.4545C59.6174 22.4545 60.6023 22.1477 61.375 21.5341C62.1477 20.9205 62.7197 20.1136 63.0909 19.1136C63.4621 18.1136 63.6477 17.0303 63.6477 15.8636C63.6477 14.697 63.4621 13.6098 63.0909 12.6023C62.7197 11.5947 62.1477 10.7803 61.375 10.1591C60.6023 9.53788 59.6174 9.22727 58.4205 9.22727C57.2235 9.22727 56.2386 9.53788 55.4659 10.1591C54.6932 10.7803 54.1212 11.5947 53.75 12.6023C53.3788 13.6098 53.1932 14.697 53.1932 15.8636C53.1932 17.0303 53.3788 18.1136 53.75 19.1136C54.1212 20.1136 54.6932 20.9205 55.4659 21.5341C56.2386 22.1477 57.2235 22.4545 58.4205 22.4545ZM70.4233 24.5V7.04545H73.0142V9.68182H73.196C73.5142 8.81818 74.09 8.11742 74.9233 7.57954C75.7566 7.04167 76.696 6.77273 77.7415 6.77273C77.9384 6.77273 78.1847 6.77651 78.4801 6.78409C78.7756 6.79167 78.9991 6.80303 79.1506 6.81818V9.54545C79.0597 9.52273 78.8513 9.48864 78.5256 9.44318C78.2074 9.39015 77.8703 9.36364 77.5142 9.36364C76.6657 9.36364 75.9081 9.54167 75.2415 9.89773C74.5824 10.2462 74.0597 10.7311 73.6733 11.3523C73.2945 11.9659 73.1051 12.6667 73.1051 13.4545V24.5H70.4233Z" fill="url(#paint0_linear_6_423)"/>
  <defs>
    <linearGradient id="paint0_linear_6_423" x1="-35.2155" y1="-21.125" x2="86.6101" y2="27.8645" gradientUnits="userSpaceOnUse">
      <stop stop-color="#FF36EB"/>
      <stop offset="1" stop-color="#1BA2EE"/>
    </linearGradient>
  </defs>
</svg>
